<svg width="341" height="341" viewBox="0 0 341 341" fill="none" xmlns="http://www.w3.org/2000/svg">
<g clip-path="url(#clip0_27:222)">
<path d="M338.556 152.206L289.669 123.485L338.556 94.7633C341 93.5411 341.611 90.7912 340.389 88.6524C340.084 88.0413 339.473 87.4302 338.861 87.1246L283.558 54.7368L227.949 22.0435C226.421 21.1269 224.893 21.1269 223.365 22.0435L170.506 53.2091L117.341 22.0435C116.119 21.1269 114.286 21.1269 112.758 22.0435L57.4543 54.7368L2.45618 87.1246C1.84509 87.4302 1.234 88.0413 0.928452 88.6524C-0.293729 90.7912 0.317361 93.5411 2.45618 94.7633L51.3434 123.485L2.15063 152.206C0.0118161 153.428 -0.599275 156.178 0.622907 158.317C0.928452 158.928 1.53954 159.539 2.15063 159.844L55.3155 191.01V251.508C55.3155 253.036 56.2321 254.563 57.4543 255.175L167.451 318.728C167.756 318.728 167.756 319.033 168.062 319.033C168.062 319.033 168.367 319.033 168.367 319.339C168.978 319.645 169.284 319.645 169.895 319.645C170.506 319.645 170.812 319.645 171.423 319.339C171.423 319.339 171.728 319.339 171.728 319.033C172.034 319.033 172.034 319.033 172.339 318.728L282.03 255.175C283.558 254.258 284.169 252.73 284.169 251.508V191.621L338.556 159.844C339.167 159.539 339.778 158.928 340.084 158.317C341.307 156.178 340.695 153.428 338.556 152.206ZM225.811 30.9043L278.975 62.0699L327.863 90.7912L281.114 118.29L227.949 87.1246L179.062 58.4034L225.811 30.9043ZM175.089 66.042L223.671 94.7633L272.558 123.485L223.671 152.206L208.088 161.372L175.089 142.123V66.042ZM13.1503 90.7912L62.0375 62.0699L115.202 30.9043L161.951 58.4034L113.064 87.1246L59.8987 118.29L13.1503 90.7912ZM165.923 66.042V142.123L132.924 161.372L117.341 152.206L68.4539 123.485L117.341 94.7633L165.923 66.042ZM62.0375 184.594L13.1503 155.872L59.8987 128.373L113.064 159.539L161.951 188.26L115.202 215.759L62.343 184.899L62.0375 184.594ZM165.312 307.728L64.1763 249.064V196.204L112.758 224.926C114.286 225.842 115.813 225.842 117.341 224.926L165.312 196.815V307.728ZM170.506 183.371L141.785 166.566L170.506 149.761L199.227 166.566L170.506 183.371ZM275.614 249.064L174.479 307.728V195.593L223.672 224.62C224.894 225.537 226.727 225.537 228.255 224.62L275.614 196.815V249.064ZM278.975 184.594L277.447 185.51L225.81 215.759L179.061 188.26L227.949 159.539L281.113 128.373L327.862 155.872L278.975 184.594Z" fill="white"/>
</g>
<defs>
<clipPath id="clip0_27:222">
<rect width="341" height="341" fill="white"/>
</clipPath>
</defs>
</svg>
