<svg width="289" height="50" viewBox="0 0 289 50" fill="none" xmlns="http://www.w3.org/2000/svg">
<path d="M64.1845 36.324C61.7125 36.324 59.5645 35.796 57.7405 34.74C55.9405 33.684 54.5485 32.172 53.5645 30.204C52.5805 28.236 52.0885 25.932 52.0885 23.292C52.0885 20.652 52.5685 18.36 53.5285 16.416C54.5125 14.448 55.9165 12.936 57.7405 11.88C59.5645 10.824 61.7125 10.296 64.1845 10.296C66.6565 10.296 68.7925 10.824 70.5925 11.88C72.4165 12.936 73.8085 14.448 74.7685 16.416C75.7525 18.36 76.2445 20.652 76.2445 23.292C76.2445 25.932 75.7525 28.236 74.7685 30.204C73.7845 32.172 72.3805 33.684 70.5565 34.74C68.7565 35.796 66.6325 36.324 64.1845 36.324ZM64.1845 32.616C66.5125 32.616 68.3245 31.812 69.6205 30.204C70.9405 28.596 71.6005 26.292 71.6005 23.292C71.6005 20.292 70.9405 18 69.6205 16.416C68.3245 14.808 66.5125 14.004 64.1845 14.004C61.8325 14.004 59.9965 14.808 58.6765 16.416C57.3805 18 56.7325 20.292 56.7325 23.292C56.7325 26.292 57.3805 28.596 58.6765 30.204C59.9965 31.812 61.8325 32.616 64.1845 32.616ZM90.3672 18.036C90.9912 17.988 91.4832 18.12 91.8432 18.432C92.2032 18.744 92.3832 19.212 92.3832 19.836C92.3832 20.484 92.2272 20.964 91.9152 21.276C91.6032 21.588 91.0392 21.792 90.2232 21.888L89.1432 21.996C87.7272 22.14 86.6832 22.62 86.0112 23.436C85.3632 24.252 85.0392 25.272 85.0392 26.496V34.056C85.0392 34.752 84.8232 35.292 84.3912 35.676C83.9592 36.036 83.4192 36.216 82.7712 36.216C82.1232 36.216 81.5832 36.036 81.1512 35.676C80.7432 35.292 80.5392 34.752 80.5392 34.056V20.124C80.5392 19.452 80.7432 18.936 81.1512 18.576C81.5832 18.216 82.1112 18.036 82.7352 18.036C83.3592 18.036 83.8632 18.216 84.2472 18.576C84.6312 18.912 84.8232 19.404 84.8232 20.052V21.492C85.2792 20.436 85.9512 19.62 86.8392 19.044C87.7512 18.468 88.7592 18.144 89.8632 18.072L90.3672 18.036ZM108.873 18.036C109.545 18.036 110.085 18.228 110.493 18.612C110.901 18.996 111.105 19.512 111.105 20.16V34.38C111.105 37.14 110.337 39.228 108.801 40.644C107.265 42.06 104.997 42.768 101.997 42.768C99.3809 42.768 97.1969 42.276 95.4449 41.292C94.5569 40.764 94.1129 40.128 94.1129 39.384C94.1129 38.856 94.2329 38.436 94.4729 38.124C94.7369 37.812 95.0729 37.656 95.4809 37.656C95.6969 37.656 95.9609 37.704 96.2729 37.8C96.5849 37.92 96.9089 38.052 97.2449 38.196C98.1089 38.556 98.8769 38.832 99.5489 39.024C100.245 39.216 101.037 39.312 101.925 39.312C105.069 39.312 106.641 37.776 106.641 34.704V32.4C106.113 33.384 105.345 34.152 104.337 34.704C103.329 35.232 102.177 35.496 100.881 35.496C99.3449 35.496 97.9769 35.136 96.7769 34.416C95.6009 33.672 94.6769 32.64 94.0049 31.32C93.3329 30 92.9969 28.476 92.9969 26.748C92.9969 25.02 93.3209 23.496 93.9689 22.176C94.6409 20.832 95.5769 19.8 96.7769 19.08C97.9769 18.336 99.3449 17.964 100.881 17.964C102.177 17.964 103.329 18.24 104.337 18.792C105.345 19.32 106.113 20.076 106.641 21.06V20.124C106.641 19.5 106.845 18.996 107.253 18.612C107.661 18.228 108.201 18.036 108.873 18.036ZM102.069 32.004C103.509 32.004 104.625 31.536 105.417 30.6C106.233 29.664 106.641 28.38 106.641 26.748C106.641 25.092 106.233 23.796 105.417 22.86C104.625 21.924 103.509 21.456 102.069 21.456C100.653 21.456 99.5369 21.924 98.7209 22.86C97.9049 23.796 97.4969 25.092 97.4969 26.748C97.4969 28.38 97.9049 29.664 98.7209 30.6C99.5369 31.536 100.653 32.004 102.069 32.004ZM123.398 17.964C125.846 17.964 127.658 18.576 128.834 19.8C130.034 21 130.634 22.836 130.634 25.308V34.092C130.634 34.74 130.442 35.256 130.058 35.64C129.674 36 129.146 36.18 128.474 36.18C127.85 36.18 127.334 35.988 126.926 35.604C126.542 35.22 126.35 34.716 126.35 34.092V33.3C125.942 34.236 125.294 34.968 124.406 35.496C123.542 36.024 122.534 36.288 121.382 36.288C120.206 36.288 119.138 36.048 118.178 35.568C117.218 35.088 116.462 34.428 115.91 33.588C115.358 32.748 115.082 31.812 115.082 30.78C115.082 29.484 115.406 28.464 116.054 27.72C116.726 26.976 117.806 26.436 119.294 26.1C120.782 25.764 122.834 25.596 125.45 25.596H126.35V24.768C126.35 23.592 126.098 22.74 125.594 22.212C125.09 21.66 124.274 21.384 123.146 21.384C122.45 21.384 121.742 21.492 121.022 21.708C120.302 21.9 119.45 22.188 118.466 22.572C117.842 22.884 117.386 23.04 117.098 23.04C116.666 23.04 116.306 22.884 116.018 22.572C115.754 22.26 115.622 21.852 115.622 21.348C115.622 20.94 115.718 20.592 115.91 20.304C116.126 19.992 116.474 19.704 116.954 19.44C117.794 18.984 118.79 18.624 119.942 18.36C121.118 18.096 122.27 17.964 123.398 17.964ZM122.282 33.048C123.482 33.048 124.454 32.652 125.198 31.86C125.966 31.044 126.35 30 126.35 28.728V27.972H125.702C124.094 27.972 122.846 28.044 121.958 28.188C121.07 28.332 120.434 28.584 120.05 28.944C119.666 29.304 119.474 29.796 119.474 30.42C119.474 31.188 119.738 31.824 120.266 32.328C120.818 32.808 121.49 33.048 122.282 33.048ZM145.431 17.964C147.543 17.964 149.115 18.564 150.147 19.764C151.179 20.964 151.695 22.776 151.695 25.2V34.056C151.695 34.728 151.491 35.256 151.083 35.64C150.699 36.024 150.159 36.216 149.463 36.216C148.767 36.216 148.215 36.024 147.807 35.64C147.399 35.256 147.195 34.728 147.195 34.056V25.452C147.195 24.084 146.931 23.088 146.403 22.464C145.899 21.84 145.095 21.528 143.991 21.528C142.695 21.528 141.651 21.936 140.859 22.752C140.091 23.568 139.707 24.66 139.707 26.028V34.056C139.707 34.728 139.503 35.256 139.095 35.64C138.687 36.024 138.135 36.216 137.439 36.216C136.743 36.216 136.191 36.024 135.783 35.64C135.399 35.256 135.207 34.728 135.207 34.056V20.124C135.207 19.5 135.411 18.996 135.819 18.612C136.227 18.228 136.779 18.036 137.475 18.036C138.099 18.036 138.603 18.228 138.987 18.612C139.395 18.972 139.599 19.452 139.599 20.052V21.024C140.199 20.04 141.003 19.284 142.011 18.756C143.019 18.228 144.159 17.964 145.431 17.964ZM158.498 36.216C157.85 36.216 157.31 36.036 156.878 35.676C156.47 35.292 156.266 34.752 156.266 34.056V20.16C156.266 19.464 156.47 18.936 156.878 18.576C157.31 18.216 157.85 18.036 158.498 18.036C159.146 18.036 159.686 18.216 160.118 18.576C160.55 18.936 160.766 19.464 160.766 20.16V34.056C160.766 34.752 160.55 35.292 160.118 35.676C159.686 36.036 159.146 36.216 158.498 36.216ZM158.498 14.832C157.682 14.832 157.034 14.616 156.554 14.184C156.074 13.728 155.834 13.14 155.834 12.42C155.834 11.7 156.074 11.124 156.554 10.692C157.034 10.26 157.682 10.044 158.498 10.044C159.29 10.044 159.926 10.26 160.406 10.692C160.91 11.124 161.162 11.7 161.162 12.42C161.162 13.14 160.922 13.728 160.442 14.184C159.962 14.616 159.314 14.832 158.498 14.832ZM178.51 32.616C179.854 32.616 180.526 33.18 180.526 34.308C180.526 34.836 180.358 35.256 180.022 35.568C179.686 35.856 179.182 36 178.51 36H166.486C165.886 36 165.394 35.808 165.01 35.424C164.626 35.04 164.434 34.584 164.434 34.056C164.434 33.504 164.65 32.976 165.082 32.472L174.334 21.78H166.306C165.634 21.78 165.13 21.636 164.794 21.348C164.458 21.06 164.29 20.64 164.29 20.088C164.29 19.536 164.458 19.116 164.794 18.828C165.13 18.54 165.634 18.396 166.306 18.396H177.934C178.558 18.396 179.05 18.588 179.41 18.972C179.794 19.332 179.986 19.788 179.986 20.34C179.986 20.916 179.782 21.444 179.374 21.924L170.086 32.616H178.51ZM191.214 17.964C193.662 17.964 195.474 18.576 196.65 19.8C197.85 21 198.45 22.836 198.45 25.308V34.092C198.45 34.74 198.258 35.256 197.874 35.64C197.49 36 196.962 36.18 196.29 36.18C195.666 36.18 195.15 35.988 194.742 35.604C194.358 35.22 194.166 34.716 194.166 34.092V33.3C193.758 34.236 193.11 34.968 192.222 35.496C191.358 36.024 190.35 36.288 189.198 36.288C188.022 36.288 186.954 36.048 185.994 35.568C185.034 35.088 184.278 34.428 183.726 33.588C183.174 32.748 182.898 31.812 182.898 30.78C182.898 29.484 183.222 28.464 183.87 27.72C184.542 26.976 185.622 26.436 187.11 26.1C188.598 25.764 190.65 25.596 193.266 25.596H194.166V24.768C194.166 23.592 193.914 22.74 193.41 22.212C192.906 21.66 192.09 21.384 190.962 21.384C190.266 21.384 189.558 21.492 188.838 21.708C188.118 21.9 187.266 22.188 186.282 22.572C185.658 22.884 185.202 23.04 184.914 23.04C184.482 23.04 184.122 22.884 183.834 22.572C183.57 22.26 183.438 21.852 183.438 21.348C183.438 20.94 183.534 20.592 183.726 20.304C183.942 19.992 184.29 19.704 184.77 19.44C185.61 18.984 186.606 18.624 187.758 18.36C188.934 18.096 190.086 17.964 191.214 17.964ZM190.098 33.048C191.298 33.048 192.27 32.652 193.014 31.86C193.782 31.044 194.166 30 194.166 28.728V27.972H193.518C191.91 27.972 190.662 28.044 189.774 28.188C188.886 28.332 188.25 28.584 187.866 28.944C187.482 29.304 187.29 29.796 187.29 30.42C187.29 31.188 187.554 31.824 188.082 32.328C188.634 32.808 189.306 33.048 190.098 33.048ZM209.396 36.288C206.78 36.288 204.668 35.772 203.06 34.74C202.292 34.284 201.908 33.636 201.908 32.796C201.908 32.316 202.04 31.932 202.304 31.644C202.568 31.332 202.892 31.176 203.276 31.176C203.684 31.176 204.248 31.368 204.968 31.752C205.736 32.112 206.432 32.388 207.056 32.58C207.704 32.772 208.52 32.868 209.504 32.868C210.512 32.868 211.292 32.7 211.844 32.364C212.42 32.028 212.708 31.56 212.708 30.96C212.708 30.552 212.588 30.228 212.348 29.988C212.132 29.748 211.724 29.532 211.124 29.34C210.548 29.124 209.66 28.884 208.46 28.62C206.324 28.188 204.788 27.576 203.852 26.784C202.94 25.992 202.484 24.9 202.484 23.508C202.484 22.452 202.796 21.504 203.42 20.664C204.044 19.8 204.896 19.14 205.976 18.684C207.08 18.204 208.328 17.964 209.72 17.964C210.728 17.964 211.7 18.096 212.636 18.36C213.572 18.6 214.412 18.96 215.156 19.44C215.924 19.92 216.308 20.556 216.308 21.348C216.308 21.828 216.176 22.236 215.912 22.572C215.648 22.884 215.324 23.04 214.94 23.04C214.676 23.04 214.412 22.992 214.148 22.896C213.908 22.776 213.596 22.608 213.212 22.392C212.516 22.032 211.916 21.768 211.412 21.6C210.908 21.408 210.284 21.312 209.54 21.312C208.652 21.312 207.944 21.492 207.416 21.852C206.912 22.212 206.66 22.704 206.66 23.328C206.66 23.928 206.924 24.384 207.452 24.696C207.98 25.008 209 25.32 210.512 25.632C212.12 25.968 213.38 26.352 214.292 26.784C215.204 27.216 215.852 27.756 216.236 28.404C216.644 29.052 216.848 29.88 216.848 30.888C216.848 32.52 216.164 33.828 214.796 34.812C213.452 35.796 211.652 36.288 209.396 36.288ZM229.464 32.868C230.664 32.94 231.264 33.48 231.264 34.488C231.264 35.064 231.024 35.508 230.544 35.82C230.088 36.108 229.428 36.228 228.564 36.18L227.592 36.108C223.56 35.82 221.544 33.66 221.544 29.628V21.78H219.744C219.096 21.78 218.592 21.636 218.232 21.348C217.896 21.06 217.728 20.64 217.728 20.088C217.728 19.536 217.896 19.116 218.232 18.828C218.592 18.54 219.096 18.396 219.744 18.396H221.544V15.084C221.544 14.436 221.748 13.92 222.156 13.536C222.564 13.152 223.116 12.96 223.812 12.96C224.484 12.96 225.024 13.152 225.432 13.536C225.84 13.92 226.044 14.436 226.044 15.084V18.396H229.104C229.752 18.396 230.244 18.54 230.58 18.828C230.94 19.116 231.12 19.536 231.12 20.088C231.12 20.64 230.94 21.06 230.58 21.348C230.244 21.636 229.752 21.78 229.104 21.78H226.044V29.952C226.044 31.728 226.86 32.676 228.492 32.796L229.464 32.868ZM241.638 36.288C239.838 36.288 238.254 35.916 236.886 35.172C235.542 34.428 234.498 33.36 233.754 31.968C233.01 30.576 232.638 28.956 232.638 27.108C232.638 25.26 233.01 23.652 233.754 22.284C234.498 20.892 235.542 19.824 236.886 19.08C238.254 18.336 239.838 17.964 241.638 17.964C243.438 17.964 245.01 18.336 246.354 19.08C247.722 19.824 248.766 20.892 249.486 22.284C250.23 23.652 250.602 25.26 250.602 27.108C250.602 28.956 250.23 30.576 249.486 31.968C248.766 33.36 247.722 34.428 246.354 35.172C245.01 35.916 243.438 36.288 241.638 36.288ZM241.602 32.796C243.066 32.796 244.182 32.316 244.95 31.356C245.718 30.396 246.102 28.98 246.102 27.108C246.102 25.26 245.718 23.856 244.95 22.896C244.182 21.912 243.078 21.42 241.638 21.42C240.198 21.42 239.082 21.912 238.29 22.896C237.522 23.856 237.138 25.26 237.138 27.108C237.138 28.98 237.522 30.396 238.29 31.356C239.058 32.316 240.162 32.796 241.602 32.796ZM262.129 36.288C260.377 36.288 258.829 35.916 257.485 35.172C256.165 34.428 255.145 33.372 254.425 32.004C253.705 30.636 253.345 29.04 253.345 27.216C253.345 25.392 253.717 23.784 254.461 22.392C255.229 20.976 256.297 19.884 257.665 19.116C259.033 18.348 260.605 17.964 262.381 17.964C263.317 17.964 264.253 18.096 265.189 18.36C266.149 18.624 266.989 18.984 267.709 19.44C268.477 19.944 268.861 20.58 268.861 21.348C268.861 21.876 268.729 22.308 268.465 22.644C268.225 22.956 267.901 23.112 267.493 23.112C267.229 23.112 266.953 23.052 266.665 22.932C266.377 22.812 266.089 22.668 265.801 22.5C265.273 22.188 264.769 21.948 264.289 21.78C263.809 21.588 263.257 21.492 262.633 21.492C261.145 21.492 259.993 21.984 259.177 22.968C258.385 23.928 257.989 25.32 257.989 27.144C257.989 28.944 258.385 30.336 259.177 31.32C259.993 32.28 261.145 32.76 262.633 32.76C263.233 32.76 263.761 32.676 264.217 32.508C264.697 32.316 265.225 32.064 265.801 31.752C266.161 31.536 266.473 31.38 266.737 31.284C267.001 31.164 267.265 31.104 267.529 31.104C267.913 31.104 268.237 31.272 268.501 31.608C268.765 31.944 268.897 32.364 268.897 32.868C268.897 33.276 268.801 33.636 268.609 33.948C268.441 34.236 268.153 34.5 267.745 34.74C267.001 35.22 266.137 35.604 265.153 35.892C264.169 36.156 263.161 36.288 262.129 36.288ZM287.555 32.508C288.035 32.964 288.275 33.48 288.275 34.056C288.275 34.608 288.071 35.1 287.663 35.532C287.279 35.964 286.823 36.18 286.295 36.18C285.767 36.18 285.275 35.964 284.819 35.532L276.395 27.9V34.056C276.395 34.752 276.179 35.28 275.747 35.64C275.315 36 274.775 36.18 274.127 36.18C273.479 36.18 272.939 36 272.507 35.64C272.099 35.28 271.895 34.752 271.895 34.056V12.564C271.895 11.868 272.099 11.34 272.507 10.98C272.939 10.62 273.479 10.44 274.127 10.44C274.775 10.44 275.315 10.62 275.747 10.98C276.179 11.34 276.395 11.868 276.395 12.564V26.1L284.099 18.72C284.531 18.288 285.023 18.072 285.575 18.072C286.127 18.072 286.607 18.276 287.015 18.684C287.423 19.092 287.627 19.572 287.627 20.124C287.627 20.676 287.399 21.18 286.943 21.636L281.291 26.892L287.555 32.508Z" fill="white"/>
<g clip-path="url(#clip0_305:4)">
<path d="M49.6416 22.3176L42.4734 18.1062L49.6416 13.8949C50 13.7157 50.0897 13.3125 49.9104 12.9989C49.8656 12.9093 49.776 12.8197 49.6864 12.7749L41.5774 8.02594L33.4235 3.23219C33.1995 3.09779 32.9755 3.09779 32.7515 3.23219L25.0009 7.80193L17.2055 3.23219C17.0263 3.09779 16.7574 3.09779 16.5334 3.23219L8.42439 8.02594L0.360143 12.7749C0.270541 12.8197 0.180938 12.9093 0.136137 12.9989C-0.0430688 13.3125 0.0465339 13.7157 0.360143 13.8949L7.52836 18.1062L0.315342 22.3176C0.00173256 22.4968 -0.0878702 22.9 0.0913353 23.2136C0.136137 23.3032 0.225739 23.3928 0.315342 23.4376L8.11078 28.0073V36.878C8.11078 37.102 8.24518 37.326 8.42439 37.4156L24.5529 46.7343C24.5977 46.7343 24.5977 46.7791 24.6425 46.7791C24.6425 46.7791 24.6873 46.7791 24.6873 46.8239C24.7769 46.8687 24.8217 46.8687 24.9113 46.8687C25.0009 46.8687 25.0457 46.8687 25.1353 46.8239C25.1353 46.8239 25.1801 46.8239 25.1801 46.7791C25.2249 46.7791 25.2249 46.7791 25.2697 46.7343L41.3534 37.4156C41.5774 37.2812 41.667 37.0572 41.667 36.878V28.097L49.6416 23.4376C49.7312 23.3928 49.8208 23.3032 49.8656 23.2136C50.045 22.9 49.9552 22.4968 49.6416 22.3176ZM33.1101 4.53143L40.9055 9.10117L48.0737 13.3125L41.2191 17.3446L33.4237 12.7749L26.2554 8.56356L33.1101 4.53143ZM25.6729 9.68359L32.7963 13.8949L39.9645 18.1062L32.7963 22.3176L30.5115 23.6616L25.6729 20.8391V9.68359ZM1.92819 13.3125L9.09641 9.10117L16.8918 4.53143L23.7465 8.56356L16.5782 12.7749L8.7828 17.3446L1.92819 13.3125ZM24.3289 9.68359V20.8391L19.4903 23.6616L17.2055 22.3176L10.0372 18.1062L17.2055 13.8949L24.3289 9.68359ZM9.09641 27.0665L1.92819 22.8552L8.7828 18.8231L16.5782 23.3928L23.7465 27.6041L16.8918 31.6363L9.14121 27.1113L9.09641 27.0665ZM24.2393 45.1215L9.41002 36.5196V28.769L16.5334 32.9803C16.7574 33.1147 16.9814 33.1147 17.2055 32.9803L24.2393 28.8586V45.1215ZM25.0009 26.8873L20.7896 24.4232L25.0009 21.9592L29.2122 24.4232L25.0009 26.8873ZM40.4127 36.5196L25.5834 45.1215V28.6794L32.7964 32.9355C32.9756 33.0699 33.2445 33.0699 33.4685 32.9355L40.4127 28.8586V36.5196ZM40.9054 27.0665L40.6814 27.2009L33.1099 31.6363L26.2553 27.6041L33.4235 23.3928L41.219 18.8231L48.0736 22.8552L40.9054 27.0665Z" fill="white"/>
</g>
<defs>
<clipPath id="clip0_305:4">
<rect width="50" height="50" fill="white"/>
</clipPath>
</defs>
</svg>
