<svg width="50" height="42" viewBox="0 0 50 42" fill="none" xmlns="http://www.w3.org/2000/svg">
<path d="M49.6416 18.0563L42.4734 14.093L49.6416 10.1297C50 9.96102 50.0897 9.58156 49.9104 9.28641C49.8656 9.20209 49.776 9.11776 49.6864 9.0756L41.5774 4.60631L33.4235 0.0948669C33.1995 -0.0316223 32.9755 -0.0316223 32.7515 0.0948669L25.0009 4.3955L17.2055 0.0948669C17.0263 -0.0316223 16.7574 -0.0316223 16.5334 0.0948669L8.42439 4.60631L0.360143 9.0756C0.270541 9.11776 0.180938 9.20209 0.136137 9.28641C-0.0430688 9.58156 0.0465339 9.96102 0.360143 10.1297L7.52836 14.093L0.315342 18.0563C0.00173256 18.225 -0.0878702 18.6045 0.0913353 18.8996C0.136137 18.9839 0.225739 19.0682 0.315342 19.1104L8.11078 23.411V31.7593C8.11078 31.9701 8.24518 32.181 8.42439 32.2653L24.5529 41.0352C24.5977 41.0352 24.5977 41.0774 24.6425 41.0774C24.6425 41.0774 24.6873 41.0774 24.6873 41.1195C24.7769 41.1617 24.8217 41.1617 24.9113 41.1617C25.0009 41.1617 25.0457 41.1617 25.1353 41.1195C25.1353 41.1195 25.1801 41.1195 25.1801 41.0774C25.2249 41.0774 25.2249 41.0774 25.2697 41.0352L41.3534 32.2653C41.5774 32.1388 41.667 31.928 41.667 31.7593V23.4954L49.6416 19.1104C49.7312 19.0682 49.8208 18.9839 49.8656 18.8996C50.045 18.6045 49.9552 18.225 49.6416 18.0563ZM33.1101 1.3176L40.9055 5.61823L48.0737 9.58156L41.2191 13.3762L33.4237 9.0756L26.2554 5.11227L33.1101 1.3176ZM25.6729 6.16635L32.7963 10.1297L39.9645 14.093L32.7963 18.0563L30.5115 19.3212L25.6729 16.6649V6.16635ZM1.92819 9.58156L9.09641 5.61823L16.8918 1.3176L23.7465 5.11227L16.5782 9.0756L8.7828 13.3762L1.92819 9.58156ZM24.3289 6.16635V16.6649L19.4903 19.3212L17.2055 18.0563L10.0372 14.093L17.2055 10.1297L24.3289 6.16635ZM9.09641 22.5256L1.92819 18.5623L8.7828 14.7676L16.5782 19.0682L23.7465 23.0316L16.8918 26.8262L9.14121 22.5678L9.09641 22.5256ZM24.2393 39.5173L9.41002 31.422V24.1278L16.5334 28.0911C16.7574 28.2176 16.9814 28.2176 17.2055 28.0911L24.2393 24.2121V39.5173ZM25.0009 22.357L20.7896 20.038L25.0009 17.719L29.2122 20.038L25.0009 22.357ZM40.4127 31.422L25.5834 39.5173V24.0435L32.7964 28.049C32.9756 28.1755 33.2445 28.1755 33.4685 28.049L40.4127 24.2121V31.422ZM40.9054 22.5256L40.6814 22.6521L33.1099 26.8262L26.2553 23.0316L33.4235 19.0682L41.219 14.7676L48.0736 18.5623L40.9054 22.5256Z" fill="white"/>
</svg>
